<svg width="66" height="66" viewBox="0 0 66 66" fill="none" xmlns="http://www.w3.org/2000/svg">
<path d="M33 0.686768C16.2031 0.686768 2.39062 13.4211 0.6875 29.7649C0.5625 30.8899 0.5 32.0305 0.5 33.1868C0.5 34.343 0.5625 35.4836 0.6875 36.6086C2.39062 52.9524 16.2031 65.6868 33 65.6868C50.9531 65.6868 65.5 51.1399 65.5 33.1868C65.5 15.2336 50.9531 0.686768 33 0.686768ZM54.2188 51.6399C50.6719 50.2961 44.9219 48.3274 41.3438 47.2649C40.9688 47.1555 40.9219 47.1243 40.9219 45.593C40.9219 44.3274 41.4375 43.0461 41.9531 41.9524C42.5156 40.7805 43.1562 38.7961 43.3906 37.0149C44.0469 36.2493 44.9531 34.7493 45.5156 31.8743C46.0156 29.343 45.7812 28.4211 45.4531 27.5618C45.4219 27.468 45.375 27.3743 45.3594 27.2961C45.2344 26.7024 45.4063 23.6243 45.8438 21.2336C46.1406 19.593 45.7656 16.1086 43.5156 13.218C42.0937 11.3899 39.3594 9.15552 34.375 8.84302H31.6406C26.7344 9.15552 24.0156 11.3899 22.5781 13.218C20.3125 16.1086 19.9375 19.593 20.2344 21.2336C20.6719 23.6243 20.8438 26.7024 20.7188 27.2961C20.6875 27.4055 20.6562 27.4836 20.625 27.5774C20.2969 28.4368 20.0469 29.3586 20.5625 31.8899C21.1406 34.7649 22.0312 36.2649 22.6875 37.0305C22.9219 38.8118 23.5781 40.7805 24.125 41.968C24.5312 42.8274 24.7188 43.9993 24.7188 45.6555C24.7188 47.2024 24.6562 47.218 24.3125 47.3274C20.6094 48.4211 15.1094 50.3586 11.8125 51.6711C7.3125 46.5305 4.875 40.0461 4.875 33.1868C4.875 25.6711 7.79687 18.6086 13.1094 13.2961C18.4219 7.98364 25.4844 5.06177 33 5.06177C40.5156 5.06177 47.5781 7.98364 52.8906 13.2961C58.2031 18.6086 61.125 25.6711 61.125 33.1868C61.125 40.0461 58.6875 46.5305 54.2188 51.6399Z" fill="#E5E5EA"/>
</svg>
